# Blender v2.77 (sub 0) OBJ File: 'spaceship.blend'
# www.blender.org
mtllib spaceship.mtl
o Cube.009
v 0.500000 1.000000 -1.000000
v 0.500000 1.000000 1.000000
v -1.500000 1.000000 1.000000
v -1.500000 1.000000 -1.000000
v 0.500000 2.000000 -0.999999
v 0.499999 2.000000 1.000001
v -1.500000 2.000000 1.000000
v -1.500000 2.000000 -1.000000
vn 0.0000 -1.0000 -0.0000
vn 0.0000 1.0000 -0.0000
vn 1.0000 0.0000 0.0000
vn -0.0000 -0.0000 1.0000
vn -1.0000 -0.0000 -0.0000
vn 0.0000 0.0000 -1.0000
usemtl glass
s off
f 1//1 2//1 3//1 4//1
f 5//2 8//2 7//2 6//2
f 1//3 5//3 6//3 2//3
f 2//4 6//4 7//4 3//4
f 3//5 7//5 8//5 4//5
f 5//6 1//6 4//6 8//6
o Cube.008
v 2.500000 1.000000 -1.000000
v 2.500000 1.000000 1.000000
v 0.500000 1.000000 1.000000
v 0.500000 1.000000 -1.000000
v 2.500000 1.000000 -0.999999
v 2.499999 1.000000 1.000001
v 0.500000 2.000000 1.000000
v 0.500000 2.000000 -1.000000
vn 0.0000 -1.0000 -0.0000
vn 0.4472 0.8944 0.0000
vn 0.0000 1.0000 0.0000
vn -0.0000 -0.0000 1.0000
vn -1.0000 -0.0000 -0.0000
vn 0.0000 0.0000 -1.0000
usemtl glass
s off
f 9//7 10//7 11//7 12//7
f 13//8 16//8 15//8 14//8
f 9//9 13//9 14//9 10//9
f 10//10 14//10 15//10 11//10
f 11//11 15//11 16//11 12//11
f 13//12 9//12 12//12 16//12
o Cube.007
v -1.500000 0.000000 -1.000000
v -1.500000 0.000000 1.000000
v -3.500000 0.000000 1.000000
v -3.500000 0.000000 -1.000000
v -1.500000 1.000000 -0.999999
v -1.500001 1.000000 1.000001
v -3.500000 1.000000 1.000000
v -3.500000 1.000000 -1.000000
vn 0.0000 -1.0000 0.0000
vn 0.0000 1.0000 0.0000
vn 1.0000 0.0000 0.0000
vn -0.0000 -0.0000 1.0000
vn -1.0000 -0.0000 -0.0000
vn 0.0000 0.0000 -1.0000
usemtl metal
s off
f 17//13 18//13 19//13 20//13
f 21//14 24//14 23//14 22//14
f 17//15 21//15 22//15 18//15
f 18//16 22//16 23//16 19//16
f 19//17 23//17 24//17 20//17
f 21//18 17//18 20//18 24//18
o Cube.006
v 0.500000 0.000000 -1.000000
v 0.500000 0.000000 1.000000
v -1.500000 0.000000 1.000000
v -1.500000 0.000000 -1.000000
v 0.500000 1.000000 -0.999999
v 0.499999 1.000000 1.000001
v -1.500000 1.000000 1.000000
v -1.500000 1.000000 -1.000000
vn 0.0000 -1.0000 0.0000
vn 0.0000 1.0000 -0.0000
vn 1.0000 0.0000 0.0000
vn -0.0000 -0.0000 1.0000
vn -1.0000 -0.0000 -0.0000
vn 0.0000 0.0000 -1.0000
usemtl metal
s off
f 25//19 26//19 27//19 28//19
f 29//20 32//20 31//20 30//20
f 25//21 29//21 30//21 26//21
f 26//22 30//22 31//22 27//22
f 27//23 31//23 32//23 28//23
f 29//24 25//24 28//24 32//24
o Cube.005
v 0.500000 0.000000 -3.000000
v 0.500000 0.000000 -1.000000
v -1.500000 0.000000 -1.000000
v -1.500000 0.000000 -4.000000
v 0.500000 1.000000 -3.000000
v 0.499999 1.000000 -0.999999
v -1.500000 1.000000 -1.000000
v -1.500000 1.000000 -4.000000
vn 0.0000 -1.0000 0.0000
vn 0.0000 1.0000 -0.0000
vn 1.0000 0.0000 0.0000
vn -0.0000 -0.0000 1.0000
vn -1.0000 -0.0000 -0.0000
vn 0.4472 0.0000 -0.8944
usemtl metal
s off
f 33//25 34//25 35//25 36//25
f 37//26 40//26 39//26 38//26
f 33//27 37//27 38//27 34//27
f 34//28 38//28 39//28 35//28
f 35//29 39//29 40//29 36//29
f 37//30 33//30 36//30 40//30
o Cube.004
v 0.500000 0.000000 1.000000
v 0.500000 0.000000 3.000000
v -1.500000 0.000000 4.000000
v -1.500000 0.000000 1.000000
v 0.500000 1.000000 1.000000
v 0.499999 1.000000 3.000000
v -1.500000 1.000000 4.000000
v -1.500000 1.000000 1.000000
vn 0.0000 -1.0000 0.0000
vn 0.0000 1.0000 -0.0000
vn 1.0000 0.0000 0.0000
vn 0.4472 0.0000 0.8944
vn -1.0000 -0.0000 -0.0000
vn 0.0000 0.0000 -1.0000
usemtl metal
s off
f 41//31 42//31 43//31 44//31
f 45//32 48//32 47//32 46//32
f 41//33 45//33 46//33 42//33
f 42//34 46//34 47//34 43//34
f 43//35 47//35 48//35 44//35
f 45//36 41//36 44//36 48//36
o Cube.003
v 2.500000 0.000000 1.000000
v 2.500000 0.000000 2.500000
v 0.500000 0.000000 3.000000
v 0.500000 0.000000 1.000000
v 2.500000 1.000000 1.000000
v 2.499999 1.000000 2.500000
v 0.500000 1.000000 3.000000
v 0.500000 1.000000 1.000000
vn 0.0000 -1.0000 0.0000
vn 0.0000 1.0000 0.0000
vn 1.0000 -0.0000 0.0000
vn 0.2425 0.0000 0.9701
vn -1.0000 -0.0000 -0.0000
vn 0.0000 0.0000 -1.0000
usemtl metal
s off
f 49//37 50//37 51//37 52//37
f 53//38 56//38 55//38 54//38
f 49//39 53//39 54//39 50//39
f 50//40 54//40 55//40 51//40
f 51//41 55//41 56//41 52//41
f 53//42 49//42 52//42 56//42
o Cube.002
v 2.500000 0.000000 -2.500000
v 2.500000 0.000000 -1.000000
v 0.500000 0.000000 -1.000000
v 0.500000 0.000000 -3.000000
v 2.500000 1.000000 -2.500000
v 2.499999 1.000000 -0.999999
v 0.500000 1.000000 -1.000000
v 0.500000 1.000000 -3.000000
vn 0.0000 -1.0000 0.0000
vn 0.0000 1.0000 0.0000
vn 1.0000 0.0000 0.0000
vn -0.0000 -0.0000 1.0000
vn -1.0000 -0.0000 -0.0000
vn 0.2425 0.0000 -0.9701
usemtl metal
s off
f 57//43 58//43 59//43 60//43
f 61//44 64//44 63//44 62//44
f 57//45 61//45 62//45 58//45
f 58//46 62//46 63//46 59//46
f 59//47 63//47 64//47 60//47
f 61//48 57//48 60//48 64//48
o Cube.001
v 4.500000 0.000000 -0.500000
v 4.500000 0.000000 0.500000
v 2.500000 0.000000 1.000000
v 2.500000 0.000000 -1.000000
v 4.500000 1.000000 -0.500000
v 4.500000 1.000000 0.500000
v 2.500000 1.000000 1.000000
v 2.500000 1.000000 -1.000000
vn 0.0000 -1.0000 0.0000
vn 0.0000 1.0000 0.0000
vn 1.0000 -0.0000 0.0000
vn 0.2425 0.0000 0.9701
vn -1.0000 -0.0000 -0.0000
vn 0.2425 0.0000 -0.9701
usemtl metal
s off
f 65//49 66//49 67//49 68//49
f 69//50 72//50 71//50 70//50
f 65//51 69//51 70//51 66//51
f 66//52 70//52 71//52 67//52
f 67//53 71//53 72//53 68//53
f 69//54 65//54 68//54 72//54
o Cube
v 2.500000 0.000000 -1.000000
v 2.500000 0.000000 1.000000
v 0.500000 0.000000 1.000000
v 0.500000 0.000000 -1.000000
v 2.500000 1.000000 -0.999999
v 2.499999 1.000000 1.000001
v 0.500000 1.000000 1.000000
v 0.500000 1.000000 -1.000000
vn 0.0000 -1.0000 0.0000
vn 0.0000 1.0000 0.0000
vn 1.0000 0.0000 0.0000
vn -0.0000 -0.0000 1.0000
vn -1.0000 -0.0000 -0.0000
vn 0.0000 0.0000 -1.0000
usemtl metal
s off
f 73//55 74//55 75//55 76//55
f 77//56 80//56 79//56 78//56
f 73//57 77//57 78//57 74//57
f 74//58 78//58 79//58 75//58
f 75//59 79//59 80//59 76//59
f 77//60 73//60 76//60 80//60
